<svg width="1080" height="809" viewBox="0 0 1080 809" fill="none" xmlns="http://www.w3.org/2000/svg">

<g filter="url(#filter0_i_1944_2508)">
<rect x="58.166" y="291.139" width="240.733" height="246.059" rx="19.7825" fill="url(#paint0_linear_1944_2508)"/>
</g>
<g filter="url(#filter1_d_1944_2508)">
<rect x="76.749" y="312.256" width="204.517" height="204.517" rx="19.7825" fill="#E7E8EA"/>
<rect x="79.2218" y="314.728" width="199.571" height="199.571" rx="17.3097" stroke="white" stroke-width="4.94563"/>
</g>
<path d="M438.76 73.4072C445.588 73.4072 451.124 78.9431 451.124 85.7715V188.957C451.124 195.786 445.588 201.321 438.76 201.321H359.531V73.4072H438.76Z" stroke="#26BF19" stroke-width="14.8369"/>
<g filter="url(#filter2_d_1944_2508)">
<rect x="321.705" y="73.5916" width="125.012" height="125.012" rx="9.89126" fill="#E7E8EA"/>
<rect x="324.178" y="76.0644" width="120.067" height="120.067" rx="7.41844" stroke="white" stroke-width="4.94563"/>
</g>
<path d="M309.199 318.039C309.199 321.681 312.151 324.633 315.793 324.633C319.435 324.633 322.387 321.681 322.387 318.039C322.387 314.397 319.435 311.445 315.793 311.445C312.151 311.445 309.199 314.397 309.199 318.039ZM407.181 223.1C407.181 226.741 410.134 229.694 413.776 229.694C417.417 229.694 420.37 226.741 420.37 223.1C420.37 219.458 417.417 216.505 413.776 216.505C410.134 216.505 407.181 219.458 407.181 223.1ZM315.793 318.039V319.276C340.196 319.276 358.687 320.101 372.48 319.649C386.259 319.197 395.841 317.478 402.32 312.075C408.835 306.64 411.936 297.722 413.474 283.694C415.014 269.64 415.012 250.104 415.012 223.1H413.776H412.539C412.539 250.169 412.537 269.538 411.016 283.424C409.491 297.336 406.468 305.394 400.736 310.176C394.966 314.988 386.177 316.726 372.399 317.177C358.634 317.628 340.381 316.803 315.793 316.803V318.039Z" fill="#26BF19"/>
<path d="M624.589 177.657C631.417 177.657 636.953 183.193 636.953 190.021V293.207C636.953 300.036 631.417 305.571 624.589 305.571H545.36V177.657H624.589Z" stroke="#CD0000" stroke-width="14.8369"/>
<g filter="url(#filter3_d_1944_2508)">
<rect x="507.533" y="177.841" width="125.012" height="125.012" rx="9.89126" fill="#E7E8EA"/>
<rect x="510.006" y="180.314" width="120.067" height="120.067" rx="7.41844" stroke="white" stroke-width="4.94563"/>
</g>
<path d="M310.043 359.294C310.043 362.936 312.995 365.888 316.637 365.888C320.279 365.888 323.231 362.936 323.231 359.294C323.231 355.652 320.279 352.7 316.637 352.7C312.995 352.7 310.043 355.652 310.043 359.294ZM582.029 330.728C582.029 334.37 584.981 337.322 588.623 337.322C592.265 337.322 595.217 334.37 595.217 330.728C595.217 327.086 592.265 324.134 588.623 324.134C584.981 324.134 582.029 327.086 582.029 330.728ZM316.637 359.294V360.53C452.567 360.53 520.664 361.526 554.736 358.445C563.267 357.674 569.729 356.642 574.617 355.256C579.504 353.87 582.912 352.103 585.243 349.798C587.598 347.469 588.747 344.694 589.309 341.513C589.863 338.379 589.859 334.762 589.859 330.728H588.623H587.387C587.387 334.829 587.383 338.206 586.874 341.083C586.374 343.913 585.398 346.166 583.504 348.04C581.584 349.939 578.618 351.551 573.943 352.877C569.269 354.202 562.982 355.216 554.513 355.982C520.589 359.049 452.693 358.057 316.637 358.057V359.294Z" fill="#CD0000"/>
<path d="M765.296 338.067C772.124 338.067 777.66 343.603 777.66 350.432V453.617C777.66 460.446 772.124 465.981 765.296 465.981H686.067V338.067H765.296Z" stroke="#CD00AC" stroke-width="14.8369"/>
<g filter="url(#filter4_d_1944_2508)">
<rect x="648.24" y="338.252" width="125.012" height="125.012" rx="9.89126" fill="#E7E8EA"/>
<rect x="650.713" y="340.725" width="120.067" height="120.067" rx="7.41844" stroke="white" stroke-width="4.94563"/>
</g>
<path d="M309.82 401.303C309.82 404.945 312.772 407.897 316.414 407.897C320.056 407.897 323.008 404.945 323.008 401.303C323.008 397.661 320.056 394.709 316.414 394.709C312.772 394.709 309.82 397.661 309.82 401.303ZM614.471 401.303C614.471 404.945 617.423 407.897 621.065 407.897C624.707 407.897 627.659 404.945 627.659 401.303C627.659 397.661 624.707 394.709 621.065 394.709C617.423 394.709 614.471 397.661 614.471 401.303ZM316.414 401.303V402.539C316.502 402.539 316.592 402.539 316.681 402.539C316.771 402.539 316.862 402.539 316.953 402.539C317.044 402.539 317.136 402.539 317.228 402.539C317.321 402.539 317.414 402.539 317.508 402.539C317.602 402.539 317.696 402.539 317.791 402.539C317.887 402.539 317.983 402.539 318.079 402.539C318.176 402.539 318.273 402.539 318.371 402.539C318.469 402.539 318.567 402.539 318.666 402.539C318.766 402.539 318.866 402.539 318.966 402.539C319.067 402.539 319.168 402.539 319.27 402.539C319.372 402.539 319.474 402.539 319.577 402.539C319.681 402.539 319.785 402.539 319.889 402.539C319.994 402.539 320.099 402.539 320.205 402.539C320.31 402.539 320.417 402.539 320.524 402.539C320.631 402.539 320.739 402.539 320.847 402.539C320.956 402.539 321.065 402.539 321.174 402.539C321.284 402.539 321.394 402.539 321.505 402.539C321.616 402.539 321.728 402.539 321.84 402.539C321.953 402.539 322.066 402.539 322.179 402.539C322.293 402.539 322.407 402.539 322.522 402.539C322.636 402.539 322.752 402.539 322.868 402.539C322.984 402.539 323.101 402.539 323.218 402.539C323.335 402.539 323.453 402.539 323.572 402.539C323.69 402.539 323.81 402.539 323.929 402.539C324.049 402.539 324.17 402.539 324.291 402.539C324.412 402.539 324.533 402.539 324.656 402.539C324.778 402.539 324.901 402.539 325.024 402.539C325.148 402.539 325.272 402.539 325.397 402.539C325.522 402.539 325.647 402.539 325.773 402.539C325.899 402.539 326.025 402.539 326.153 402.539C326.28 402.539 326.408 402.539 326.536 402.539C326.664 402.539 326.793 402.539 326.923 402.539C327.053 402.539 327.183 402.539 327.313 402.539C327.444 402.539 327.576 402.539 327.708 402.539C327.84 402.539 327.972 402.539 328.105 402.539C328.238 402.539 328.372 402.539 328.506 402.539C328.641 402.539 328.776 402.539 328.911 402.539C329.047 402.539 329.183 402.539 329.319 402.539C329.456 402.539 329.593 402.539 329.731 402.539C329.869 402.539 330.007 402.539 330.146 402.539C330.285 402.539 330.425 402.539 330.565 402.539C330.705 402.539 330.846 402.539 330.987 402.539C331.129 402.539 331.27 402.539 331.413 402.539C331.555 402.539 331.698 402.539 331.842 402.539C331.985 402.539 332.13 402.539 332.274 402.539C332.419 402.539 332.564 402.539 332.71 402.539C332.856 402.539 333.002 402.539 333.149 402.539C333.296 402.539 333.443 402.539 333.592 402.539C333.74 402.539 333.888 402.539 334.037 402.539C334.186 402.539 334.336 402.539 334.486 402.539C334.637 402.539 334.787 402.539 334.939 402.539C335.09 402.539 335.242 402.539 335.394 402.539C335.547 402.539 335.7 402.539 335.853 402.539C336.007 402.539 336.161 402.539 336.316 402.539C336.47 402.539 336.625 402.539 336.781 402.539C336.937 402.539 337.093 402.539 337.25 402.539C337.406 402.539 337.564 402.539 337.721 402.539C337.879 402.539 338.037 402.539 338.196 402.539C338.355 402.539 338.515 402.539 338.674 402.539C338.834 402.539 338.995 402.539 339.156 402.539C339.317 402.539 339.478 402.539 339.64 402.539C339.802 402.539 339.965 402.539 340.128 402.539C340.291 402.539 340.454 402.539 340.618 402.539C340.782 402.539 340.947 402.539 341.112 402.539C341.277 402.539 341.443 402.539 341.609 402.539C341.775 402.539 341.942 402.539 342.109 402.539C342.276 402.539 342.443 402.539 342.611 402.539C342.78 402.539 342.948 402.539 343.117 402.539C343.286 402.539 343.456 402.539 343.626 402.539C343.796 402.539 343.967 402.539 344.138 402.539C344.309 402.539 344.481 402.539 344.653 402.539C344.825 402.539 344.997 402.539 345.171 402.539C345.344 402.539 345.517 402.539 345.691 402.539C345.865 402.539 346.04 402.539 346.215 402.539C346.39 402.539 346.565 402.539 346.741 402.539C346.917 402.539 347.094 402.539 347.271 402.539C347.448 402.539 347.625 402.539 347.803 402.539C347.981 402.539 348.159 402.539 348.338 402.539C348.517 402.539 348.696 402.539 348.876 402.539C349.056 402.539 349.236 402.539 349.416 402.539C349.597 402.539 349.778 402.539 349.96 402.539C350.142 402.539 350.324 402.539 350.506 402.539C350.689 402.539 350.872 402.539 351.055 402.539C351.239 402.539 351.423 402.539 351.607 402.539C351.791 402.539 351.976 402.539 352.162 402.539C352.347 402.539 352.533 402.539 352.719 402.539C352.905 402.539 353.092 402.539 353.279 402.539C353.466 402.539 353.653 402.539 353.841 402.539C354.029 402.539 354.218 402.539 354.407 402.539C354.595 402.539 354.785 402.539 354.974 402.539C355.164 402.539 355.354 402.539 355.545 402.539C355.736 402.539 355.927 402.539 356.118 402.539C356.31 402.539 356.502 402.539 356.694 402.539C356.886 402.539 357.079 402.539 357.272 402.539C357.465 402.539 357.659 402.539 357.853 402.539C358.047 402.539 358.242 402.539 358.437 402.539C358.631 402.539 358.827 402.539 359.023 402.539C359.218 402.539 359.414 402.539 359.611 402.539C359.808 402.539 360.005 402.539 360.202 402.539C360.399 402.539 360.597 402.539 360.795 402.539C360.994 402.539 361.192 402.539 361.391 402.539C361.59 402.539 361.79 402.539 361.99 402.539C362.19 402.539 362.39 402.539 362.591 402.539C362.791 402.539 362.992 402.539 363.194 402.539C363.395 402.539 363.597 402.539 363.799 402.539C364.002 402.539 364.204 402.539 364.407 402.539C364.61 402.539 364.814 402.539 365.018 402.539C365.222 402.539 365.426 402.539 365.63 402.539C365.835 402.539 366.04 402.539 366.245 402.539C366.451 402.539 366.657 402.539 366.863 402.539C367.069 402.539 367.275 402.539 367.482 402.539C367.689 402.539 367.897 402.539 368.104 402.539C368.312 402.539 368.52 402.539 368.729 402.539C368.937 402.539 369.146 402.539 369.355 402.539C369.564 402.539 369.774 402.539 369.984 402.539C370.194 402.539 370.404 402.539 370.614 402.539C370.825 402.539 371.036 402.539 371.248 402.539C371.459 402.539 371.671 402.539 371.883 402.539C372.095 402.539 372.307 402.539 372.52 402.539C372.733 402.539 372.946 402.539 373.16 402.539C373.373 402.539 373.587 402.539 373.801 402.539C374.016 402.539 374.23 402.539 374.445 402.539C374.66 402.539 374.876 402.539 375.091 402.539C375.307 402.539 375.523 402.539 375.739 402.539C375.956 402.539 376.172 402.539 376.389 402.539C376.606 402.539 376.824 402.539 377.041 402.539C377.259 402.539 377.477 402.539 377.695 402.539C377.914 402.539 378.133 402.539 378.352 402.539C378.571 402.539 378.79 402.539 379.01 402.539C379.229 402.539 379.45 402.539 379.67 402.539C379.89 402.539 380.111 402.539 380.332 402.539C380.553 402.539 380.774 402.539 380.996 402.539C381.218 402.539 381.44 402.539 381.662 402.539C381.884 402.539 382.107 402.539 382.33 402.539C382.553 402.539 382.776 402.539 383 402.539C383.223 402.539 383.447 402.539 383.671 402.539C383.895 402.539 384.12 402.539 384.345 402.539C384.57 402.539 384.795 402.539 385.02 402.539C385.246 402.539 385.471 402.539 385.697 402.539C385.923 402.539 386.15 402.539 386.376 402.539C386.603 402.539 386.83 402.539 387.057 402.539C387.284 402.539 387.512 402.539 387.74 402.539C387.968 402.539 388.196 402.539 388.424 402.539C388.653 402.539 388.881 402.539 389.11 402.539C389.339 402.539 389.569 402.539 389.798 402.539C390.028 402.539 390.258 402.539 390.488 402.539C390.718 402.539 390.948 402.539 391.179 402.539C391.41 402.539 391.641 402.539 391.872 402.539C392.103 402.539 392.335 402.539 392.567 402.539C392.798 402.539 393.03 402.539 393.263 402.539C393.495 402.539 393.728 402.539 393.961 402.539C394.194 402.539 394.427 402.539 394.66 402.539C394.894 402.539 395.127 402.539 395.361 402.539C395.595 402.539 395.829 402.539 396.064 402.539C396.298 402.539 396.533 402.539 396.768 402.539C397.003 402.539 397.238 402.539 397.474 402.539C397.71 402.539 397.945 402.539 398.181 402.539C398.417 402.539 398.654 402.539 398.89 402.539C399.127 402.539 399.363 402.539 399.6 402.539C399.838 402.539 400.075 402.539 400.312 402.539C400.55 402.539 400.788 402.539 401.026 402.539C401.264 402.539 401.502 402.539 401.74 402.539C401.979 402.539 402.218 402.539 402.457 402.539C402.695 402.539 402.935 402.539 403.174 402.539C403.414 402.539 403.653 402.539 403.893 402.539C404.133 402.539 404.373 402.539 404.613 402.539C404.854 402.539 405.094 402.539 405.335 402.539C405.576 402.539 405.817 402.539 406.058 402.539C406.3 402.539 406.541 402.539 406.783 402.539C407.024 402.539 407.266 402.539 407.508 402.539C407.751 402.539 407.993 402.539 408.235 402.539C408.478 402.539 408.721 402.539 408.964 402.539C409.207 402.539 409.45 402.539 409.693 402.539C409.937 402.539 410.18 402.539 410.424 402.539C410.668 402.539 410.912 402.539 411.156 402.539C411.4 402.539 411.645 402.539 411.89 402.539C412.134 402.539 412.379 402.539 412.624 402.539C412.869 402.539 413.114 402.539 413.36 402.539C413.605 402.539 413.851 402.539 414.097 402.539C414.342 402.539 414.588 402.539 414.834 402.539C415.081 402.539 415.327 402.539 415.574 402.539C415.82 402.539 416.067 402.539 416.314 402.539C416.561 402.539 416.808 402.539 417.055 402.539C417.302 402.539 417.55 402.539 417.798 402.539C418.045 402.539 418.293 402.539 418.541 402.539C418.789 402.539 419.037 402.539 419.286 402.539C419.534 402.539 419.782 402.539 420.031 402.539C420.28 402.539 420.529 402.539 420.778 402.539C421.027 402.539 421.276 402.539 421.525 402.539C421.775 402.539 422.024 402.539 422.274 402.539C422.524 402.539 422.773 402.539 423.023 402.539C423.273 402.539 423.524 402.539 423.774 402.539C424.024 402.539 424.275 402.539 424.525 402.539C424.776 402.539 425.027 402.539 425.278 402.539C425.529 402.539 425.78 402.539 426.031 402.539C426.282 402.539 426.533 402.539 426.785 402.539C427.036 402.539 427.288 402.539 427.54 402.539C427.792 402.539 428.044 402.539 428.296 402.539C428.548 402.539 428.8 402.539 429.052 402.539C429.305 402.539 429.557 402.539 429.81 402.539C430.063 402.539 430.315 402.539 430.568 402.539C430.821 402.539 431.074 402.539 431.327 402.539C431.58 402.539 431.834 402.539 432.087 402.539C432.34 402.539 432.594 402.539 432.848 402.539C433.101 402.539 433.355 402.539 433.609 402.539C433.863 402.539 434.117 402.539 434.371 402.539C434.625 402.539 434.879 402.539 435.134 402.539C435.388 402.539 435.643 402.539 435.897 402.539C436.152 402.539 436.406 402.539 436.661 402.539C436.916 402.539 437.171 402.539 437.426 402.539C437.681 402.539 437.936 402.539 438.191 402.539C438.447 402.539 438.702 402.539 438.957 402.539C439.213 402.539 439.468 402.539 439.724 402.539C439.98 402.539 440.235 402.539 440.491 402.539C440.747 402.539 441.003 402.539 441.259 402.539C441.515 402.539 441.771 402.539 442.027 402.539C442.283 402.539 442.54 402.539 442.796 402.539C443.052 402.539 443.309 402.539 443.565 402.539C443.822 402.539 444.078 402.539 444.335 402.539C444.592 402.539 444.849 402.539 445.105 402.539C445.362 402.539 445.619 402.539 445.876 402.539C446.133 402.539 446.39 402.539 446.648 402.539C446.905 402.539 447.162 402.539 447.419 402.539C447.677 402.539 447.934 402.539 448.191 402.539C448.449 402.539 448.706 402.539 448.964 402.539C449.221 402.539 449.479 402.539 449.737 402.539C449.994 402.539 450.252 402.539 450.51 402.539C450.768 402.539 451.026 402.539 451.284 402.539C451.542 402.539 451.8 402.539 452.058 402.539C452.316 402.539 452.574 402.539 452.832 402.539C453.09 402.539 453.348 402.539 453.606 402.539C453.865 402.539 454.123 402.539 454.381 402.539C454.64 402.539 454.898 402.539 455.156 402.539C455.415 402.539 455.673 402.539 455.932 402.539C456.19 402.539 456.449 402.539 456.707 402.539C456.966 402.539 457.225 402.539 457.483 402.539C457.742 402.539 458 402.539 458.259 402.539C458.518 402.539 458.777 402.539 459.035 402.539C459.294 402.539 459.553 402.539 459.812 402.539C460.071 402.539 460.329 402.539 460.588 402.539C460.847 402.539 461.106 402.539 461.365 402.539C461.624 402.539 461.883 402.539 462.142 402.539C462.401 402.539 462.66 402.539 462.919 402.539C463.178 402.539 463.437 402.539 463.696 402.539C463.955 402.539 464.214 402.539 464.473 402.539C464.732 402.539 464.991 402.539 465.25 402.539C465.509 402.539 465.768 402.539 466.027 402.539C466.286 402.539 466.545 402.539 466.804 402.539C467.063 402.539 467.322 402.539 467.581 402.539C467.84 402.539 468.099 402.539 468.358 402.539C468.617 402.539 468.876 402.539 469.135 402.539C469.394 402.539 469.653 402.539 469.912 402.539C470.171 402.539 470.43 402.539 470.689 402.539C470.948 402.539 471.207 402.539 471.466 402.539C471.725 402.539 471.984 402.539 472.243 402.539C472.502 402.539 472.761 402.539 473.02 402.539C473.279 402.539 473.538 402.539 473.796 402.539C474.055 402.539 474.314 402.539 474.573 402.539C474.832 402.539 475.09 402.539 475.349 402.539C475.608 402.539 475.867 402.539 476.125 402.539C476.384 402.539 476.643 402.539 476.901 402.539C477.16 402.539 477.418 402.539 477.677 402.539C477.935 402.539 478.194 402.539 478.452 402.539C478.711 402.539 478.969 402.539 479.227 402.539C479.486 402.539 479.744 402.539 480.002 402.539C480.261 402.539 480.519 402.539 480.777 402.539C481.035 402.539 481.293 402.539 481.551 402.539C481.809 402.539 482.067 402.539 482.325 402.539C482.583 402.539 482.841 402.539 483.099 402.539C483.357 402.539 483.615 402.539 483.872 402.539C484.13 402.539 484.388 402.539 484.645 402.539C484.903 402.539 485.161 402.539 485.418 402.539C485.676 402.539 485.933 402.539 486.19 402.539C486.448 402.539 486.705 402.539 486.962 402.539C487.219 402.539 487.476 402.539 487.734 402.539C487.991 402.539 488.248 402.539 488.504 402.539C488.761 402.539 489.018 402.539 489.275 402.539C489.532 402.539 489.788 402.539 490.045 402.539C490.301 402.539 490.558 402.539 490.814 402.539C491.071 402.539 491.327 402.539 491.583 402.539C491.84 402.539 492.096 402.539 492.352 402.539C492.608 402.539 492.864 402.539 493.12 402.539C493.376 402.539 493.631 402.539 493.887 402.539C494.143 402.539 494.398 402.539 494.654 402.539C494.909 402.539 495.165 402.539 495.42 402.539C495.675 402.539 495.93 402.539 496.186 402.539C496.441 402.539 496.696 402.539 496.95 402.539C497.205 402.539 497.46 402.539 497.715 402.539C497.969 402.539 498.224 402.539 498.478 402.539C498.733 402.539 498.987 402.539 499.241 402.539C499.495 402.539 499.75 402.539 500.004 402.539C500.257 402.539 500.511 402.539 500.765 402.539C501.019 402.539 501.272 402.539 501.526 402.539C501.779 402.539 502.033 402.539 502.286 402.539C502.539 402.539 502.792 402.539 503.045 402.539C503.298 402.539 503.551 402.539 503.804 402.539C504.056 402.539 504.309 402.539 504.561 402.539C504.814 402.539 505.066 402.539 505.318 402.539C505.57 402.539 505.822 402.539 506.074 402.539C506.326 402.539 506.578 402.539 506.83 402.539C507.081 402.539 507.333 402.539 507.584 402.539C507.835 402.539 508.086 402.539 508.337 402.539C508.588 402.539 508.839 402.539 509.09 402.539C509.341 402.539 509.591 402.539 509.842 402.539C510.092 402.539 510.342 402.539 510.592 402.539C510.843 402.539 511.092 402.539 511.342 402.539C511.592 402.539 511.842 402.539 512.091 402.539C512.341 402.539 512.59 402.539 512.839 402.539C513.088 402.539 513.337 402.539 513.586 402.539C513.835 402.539 514.083 402.539 514.332 402.539C514.58 402.539 514.828 402.539 515.077 402.539C515.325 402.539 515.573 402.539 515.82 402.539C516.068 402.539 516.316 402.539 516.563 402.539C516.81 402.539 517.058 402.539 517.305 402.539C517.552 402.539 517.799 402.539 518.045 402.539C518.292 402.539 518.538 402.539 518.785 402.539C519.031 402.539 519.277 402.539 519.523 402.539C519.769 402.539 520.015 402.539 520.26 402.539C520.506 402.539 520.751 402.539 520.996 402.539C521.241 402.539 521.486 402.539 521.731 402.539C521.976 402.539 522.22 402.539 522.465 402.539C522.709 402.539 522.953 402.539 523.197 402.539C523.441 402.539 523.685 402.539 523.928 402.539C524.172 402.539 524.415 402.539 524.658 402.539C524.901 402.539 525.144 402.539 525.387 402.539C525.629 402.539 525.872 402.539 526.114 402.539C526.356 402.539 526.598 402.539 526.84 402.539C527.082 402.539 527.324 402.539 527.565 402.539C527.806 402.539 528.048 402.539 528.289 402.539C528.529 402.539 528.77 402.539 529.011 402.539C529.251 402.539 529.491 402.539 529.731 402.539C529.971 402.539 530.211 402.539 530.451 402.539C530.69 402.539 530.93 402.539 531.169 402.539C531.408 402.539 531.647 402.539 531.885 402.539C532.124 402.539 532.362 402.539 532.601 402.539C532.839 402.539 533.077 402.539 533.314 402.539C533.552 402.539 533.789 402.539 534.027 402.539C534.264 402.539 534.501 402.539 534.737 402.539C534.974 402.539 535.21 402.539 535.447 402.539C535.683 402.539 535.919 402.539 536.154 402.539C536.39 402.539 536.625 402.539 536.861 402.539C537.096 402.539 537.331 402.539 537.565 402.539C537.8 402.539 538.034 402.539 538.268 402.539C538.503 402.539 538.736 402.539 538.97 402.539C539.204 402.539 539.437 402.539 539.67 402.539C539.903 402.539 540.136 402.539 540.368 402.539C540.601 402.539 540.833 402.539 541.065 402.539C541.297 402.539 541.529 402.539 541.76 402.539C541.992 402.539 542.223 402.539 542.453 402.539C542.684 402.539 542.915 402.539 543.145 402.539C543.376 402.539 543.606 402.539 543.835 402.539C544.065 402.539 544.294 402.539 544.524 402.539C544.753 402.539 544.982 402.539 545.21 402.539C545.439 402.539 545.667 402.539 545.895 402.539C546.123 402.539 546.351 402.539 546.578 402.539C546.806 402.539 547.033 402.539 547.26 402.539C547.486 402.539 547.713 402.539 547.939 402.539C548.165 402.539 548.391 402.539 548.617 402.539C548.842 402.539 549.068 402.539 549.293 402.539C549.518 402.539 549.742 402.539 549.967 402.539C550.191 402.539 550.415 402.539 550.639 402.539C550.863 402.539 551.086 402.539 551.309 402.539C551.532 402.539 551.755 402.539 551.978 402.539C552.2 402.539 552.422 402.539 552.644 402.539C552.866 402.539 553.088 402.539 553.309 402.539C553.53 402.539 553.751 402.539 553.972 402.539C554.192 402.539 554.412 402.539 554.632 402.539C554.852 402.539 555.072 402.539 555.291 402.539C555.51 402.539 555.729 402.539 555.948 402.539C556.166 402.539 556.384 402.539 556.602 402.539C556.82 402.539 557.038 402.539 557.255 402.539C557.472 402.539 557.689 402.539 557.906 402.539C558.122 402.539 558.338 402.539 558.554 402.539C558.77 402.539 558.986 402.539 559.201 402.539C559.416 402.539 559.631 402.539 559.845 402.539C560.06 402.539 560.274 402.539 560.487 402.539C560.701 402.539 560.915 402.539 561.128 402.539C561.341 402.539 561.553 402.539 561.766 402.539C561.978 402.539 562.19 402.539 562.402 402.539C562.613 402.539 562.824 402.539 563.035 402.539C563.246 402.539 563.457 402.539 563.667 402.539C563.877 402.539 564.087 402.539 564.296 402.539C564.505 402.539 564.715 402.539 564.923 402.539C565.132 402.539 565.34 402.539 565.548 402.539C565.756 402.539 565.963 402.539 566.171 402.539C566.378 402.539 566.584 402.539 566.791 402.539C566.997 402.539 567.203 402.539 567.409 402.539C567.614 402.539 567.82 402.539 568.025 402.539C568.229 402.539 568.434 402.539 568.638 402.539C568.842 402.539 569.046 402.539 569.249 402.539C569.452 402.539 569.655 402.539 569.858 402.539C570.06 402.539 570.262 402.539 570.464 402.539C570.666 402.539 570.867 402.539 571.068 402.539C571.269 402.539 571.469 402.539 571.669 402.539C571.869 402.539 572.069 402.539 572.268 402.539C572.468 402.539 572.667 402.539 572.865 402.539C573.064 402.539 573.262 402.539 573.459 402.539C573.657 402.539 573.854 402.539 574.051 402.539C574.248 402.539 574.444 402.539 574.64 402.539C574.836 402.539 575.032 402.539 575.227 402.539C575.422 402.539 575.617 402.539 575.811 402.539C576.005 402.539 576.199 402.539 576.393 402.539C576.586 402.539 576.779 402.539 576.972 402.539C577.164 402.539 577.356 402.539 577.548 402.539C577.74 402.539 577.931 402.539 578.122 402.539C578.313 402.539 578.503 402.539 578.693 402.539C578.883 402.539 579.073 402.539 579.262 402.539C579.451 402.539 579.64 402.539 579.828 402.539C580.016 402.539 580.204 402.539 580.391 402.539C580.579 402.539 580.766 402.539 580.952 402.539C581.139 402.539 581.325 402.539 581.51 402.539C581.696 402.539 581.881 402.539 582.065 402.539C582.25 402.539 582.434 402.539 582.618 402.539C582.802 402.539 582.985 402.539 583.168 402.539C583.351 402.539 583.533 402.539 583.715 402.539C583.897 402.539 584.078 402.539 584.259 402.539C584.44 402.539 584.621 402.539 584.801 402.539C584.981 402.539 585.16 402.539 585.339 402.539C585.518 402.539 585.697 402.539 585.875 402.539C586.053 402.539 586.231 402.539 586.408 402.539C586.585 402.539 586.762 402.539 586.938 402.539C587.115 402.539 587.29 402.539 587.466 402.539C587.641 402.539 587.816 402.539 587.99 402.539C588.164 402.539 588.338 402.539 588.512 402.539C588.685 402.539 588.858 402.539 589.03 402.539C589.203 402.539 589.374 402.539 589.546 402.539C589.717 402.539 589.888 402.539 590.059 402.539C590.229 402.539 590.399 402.539 590.568 402.539C590.738 402.539 590.907 402.539 591.075 402.539C591.243 402.539 591.411 402.539 591.579 402.539C591.746 402.539 591.913 402.539 592.079 402.539C592.246 402.539 592.412 402.539 592.577 402.539C592.742 402.539 592.907 402.539 593.072 402.539C593.236 402.539 593.4 402.539 593.563 402.539C593.726 402.539 593.889 402.539 594.052 402.539C594.214 402.539 594.376 402.539 594.537 402.539C594.698 402.539 594.859 402.539 595.019 402.539C595.179 402.539 595.339 402.539 595.498 402.539C595.657 402.539 595.816 402.539 595.974 402.539C596.132 402.539 596.29 402.539 596.447 402.539C596.604 402.539 596.76 402.539 596.916 402.539C597.072 402.539 597.228 402.539 597.383 402.539C597.538 402.539 597.692 402.539 597.846 402.539C598 402.539 598.153 402.539 598.306 402.539C598.458 402.539 598.611 402.539 598.762 402.539C598.914 402.539 599.065 402.539 599.215 402.539C599.366 402.539 599.516 402.539 599.666 402.539C599.815 402.539 599.964 402.539 600.112 402.539C600.261 402.539 600.408 402.539 600.556 402.539C600.703 402.539 600.85 402.539 600.996 402.539C601.142 402.539 601.287 402.539 601.432 402.539C601.577 402.539 601.722 402.539 601.866 402.539C602.01 402.539 602.153 402.539 602.296 402.539C602.439 402.539 602.581 402.539 602.722 402.539C602.864 402.539 603.005 402.539 603.145 402.539C603.286 402.539 603.426 402.539 603.565 402.539C603.704 402.539 603.843 402.539 603.981 402.539C604.12 402.539 604.257 402.539 604.394 402.539C604.531 402.539 604.668 402.539 604.803 402.539C604.939 402.539 605.074 402.539 605.209 402.539C605.344 402.539 605.478 402.539 605.611 402.539C605.745 402.539 605.878 402.539 606.01 402.539C606.142 402.539 606.274 402.539 606.405 402.539C606.536 402.539 606.667 402.539 606.797 402.539C606.927 402.539 607.056 402.539 607.185 402.539C607.313 402.539 607.442 402.539 607.569 402.539C607.697 402.539 607.824 402.539 607.95 402.539C608.076 402.539 608.202 402.539 608.327 402.539C608.452 402.539 608.577 402.539 608.7 402.539C608.824 402.539 608.948 402.539 609.07 402.539C609.193 402.539 609.315 402.539 609.436 402.539C609.558 402.539 609.679 402.539 609.799 402.539C609.919 402.539 610.038 402.539 610.157 402.539C610.276 402.539 610.395 402.539 610.512 402.539C610.63 402.539 610.747 402.539 610.863 402.539C610.98 402.539 611.096 402.539 611.211 402.539C611.326 402.539 611.441 402.539 611.555 402.539C611.668 402.539 611.782 402.539 611.894 402.539C612.007 402.539 612.119 402.539 612.23 402.539C612.342 402.539 612.452 402.539 612.562 402.539C612.673 402.539 612.782 402.539 612.891 402.539C613 402.539 613.108 402.539 613.215 402.539C613.323 402.539 613.43 402.539 613.536 402.539C613.642 402.539 613.747 402.539 613.852 402.539C613.957 402.539 614.061 402.539 614.165 402.539C614.269 402.539 614.372 402.539 614.474 402.539C614.576 402.539 614.678 402.539 614.779 402.539C614.88 402.539 614.98 402.539 615.079 402.539C615.179 402.539 615.278 402.539 615.376 402.539C615.475 402.539 615.572 402.539 615.669 402.539C615.766 402.539 615.862 402.539 615.958 402.539C616.054 402.539 616.148 402.539 616.243 402.539C616.337 402.539 616.431 402.539 616.523 402.539C616.616 402.539 616.709 402.539 616.8 402.539C616.892 402.539 616.983 402.539 617.073 402.539C617.163 402.539 617.252 402.539 617.341 402.539C617.43 402.539 617.518 402.539 617.606 402.539C617.693 402.539 617.78 402.539 617.866 402.539C617.952 402.539 618.037 402.539 618.122 402.539C618.206 402.539 618.29 402.539 618.374 402.539C618.457 402.539 618.539 402.539 618.621 402.539C618.703 402.539 618.784 402.539 618.865 402.539C618.945 402.539 619.025 402.539 619.104 402.539C619.183 402.539 619.262 402.539 619.339 402.539C619.417 402.539 619.494 402.539 619.57 402.539C619.646 402.539 619.722 402.539 619.796 402.539C619.871 402.539 619.945 402.539 620.019 402.539C620.092 402.539 620.165 402.539 620.237 402.539C620.308 402.539 620.38 402.539 620.45 402.539C620.521 402.539 620.59 402.539 620.659 402.539C620.728 402.539 620.797 402.539 620.864 402.539C620.932 402.539 620.999 402.539 621.065 402.539V401.303V400.066C620.999 400.066 620.932 400.066 620.864 400.066C620.797 400.066 620.728 400.066 620.659 400.066C620.59 400.066 620.521 400.066 620.45 400.066C620.38 400.066 620.308 400.066 620.237 400.066C620.165 400.066 620.092 400.066 620.019 400.066C619.945 400.066 619.871 400.066 619.796 400.066C619.722 400.066 619.646 400.066 619.57 400.066C619.494 400.066 619.417 400.066 619.339 400.066C619.262 400.066 619.183 400.066 619.104 400.066C619.025 400.066 618.945 400.066 618.865 400.066C618.784 400.066 618.703 400.066 618.621 400.066C618.539 400.066 618.457 400.066 618.374 400.066C618.29 400.066 618.206 400.066 618.122 400.066C618.037 400.066 617.952 400.066 617.866 400.066C617.78 400.066 617.693 400.066 617.606 400.066C617.518 400.066 617.43 400.066 617.341 400.066C617.252 400.066 617.163 400.066 617.073 400.066C616.983 400.066 616.892 400.066 616.8 400.066C616.709 400.066 616.616 400.066 616.523 400.066C616.431 400.066 616.337 400.066 616.243 400.066C616.148 400.066 616.054 400.066 615.958 400.066C615.862 400.066 615.766 400.066 615.669 400.066C615.572 400.066 615.475 400.066 615.376 400.066C615.278 400.066 615.179 400.066 615.079 400.066C614.98 400.066 614.88 400.066 614.779 400.066C614.678 400.066 614.576 400.066 614.474 400.066C614.372 400.066 614.269 400.066 614.165 400.066C614.061 400.066 613.957 400.066 613.852 400.066C613.747 400.066 613.642 400.066 613.536 400.066C613.43 400.066 613.323 400.066 613.215 400.066C613.108 400.066 613 400.066 612.891 400.066C612.782 400.066 612.673 400.066 612.562 400.066C612.452 400.066 612.342 400.066 612.23 400.066C612.119 400.066 612.007 400.066 611.894 400.066C611.782 400.066 611.668 400.066 611.555 400.066C611.441 400.066 611.326 400.066 611.211 400.066C611.096 400.066 610.98 400.066 610.863 400.066C610.747 400.066 610.63 400.066 610.512 400.066C610.395 400.066 610.276 400.066 610.157 400.066C610.038 400.066 609.919 400.066 609.799 400.066C609.679 400.066 609.558 400.066 609.436 400.066C609.315 400.066 609.193 400.066 609.07 400.066C608.948 400.066 608.824 400.066 608.7 400.066C608.577 400.066 608.452 400.066 608.327 400.066C608.202 400.066 608.076 400.066 607.95 400.066C607.824 400.066 607.697 400.066 607.569 400.066C607.442 400.066 607.313 400.066 607.185 400.066C607.056 400.066 606.927 400.066 606.797 400.066C606.667 400.066 606.536 400.066 606.405 400.066C606.274 400.066 606.142 400.066 606.01 400.066C605.878 400.066 605.745 400.066 605.611 400.066C605.478 400.066 605.344 400.066 605.209 400.066C605.074 400.066 604.939 400.066 604.803 400.066C604.668 400.066 604.531 400.066 604.394 400.066C604.257 400.066 604.12 400.066 603.981 400.066C603.843 400.066 603.704 400.066 603.565 400.066C603.426 400.066 603.286 400.066 603.145 400.066C603.005 400.066 602.864 400.066 602.722 400.066C602.581 400.066 602.439 400.066 602.296 400.066C602.153 400.066 602.01 400.066 601.866 400.066C601.722 400.066 601.577 400.066 601.432 400.066C601.287 400.066 601.142 400.066 600.996 400.066C600.85 400.066 600.703 400.066 600.556 400.066C600.408 400.066 600.261 400.066 600.112 400.066C599.964 400.066 599.815 400.066 599.666 400.066C599.516 400.066 599.366 400.066 599.215 400.066C599.065 400.066 598.914 400.066 598.762 400.066C598.611 400.066 598.458 400.066 598.306 400.066C598.153 400.066 598 400.066 597.846 400.066C597.692 400.066 597.538 400.066 597.383 400.066C597.228 400.066 597.072 400.066 596.916 400.066C596.76 400.066 596.604 400.066 596.447 400.066C596.29 400.066 596.132 400.066 595.974 400.066C595.816 400.066 595.657 400.066 595.498 400.066C595.339 400.066 595.179 400.066 595.019 400.066C594.859 400.066 594.698 400.066 594.537 400.066C594.376 400.066 594.214 400.066 594.052 400.066C593.889 400.066 593.726 400.066 593.563 400.066C593.4 400.066 593.236 400.066 593.072 400.066C592.907 400.066 592.742 400.066 592.577 400.066C592.412 400.066 592.246 400.066 592.079 400.066C591.913 400.066 591.746 400.066 591.579 400.066C591.411 400.066 591.243 400.066 591.075 400.066C590.907 400.066 590.738 400.066 590.568 400.066C590.399 400.066 590.229 400.066 590.059 400.066C589.888 400.066 589.717 400.066 589.546 400.066C589.374 400.066 589.203 400.066 589.03 400.066C588.858 400.066 588.685 400.066 588.512 400.066C588.338 400.066 588.164 400.066 587.99 400.066C587.816 400.066 587.641 400.066 587.466 400.066C587.29 400.066 587.115 400.066 586.938 400.066C586.762 400.066 586.585 400.066 586.408 400.066C586.231 400.066 586.053 400.066 585.875 400.066C585.697 400.066 585.518 400.066 585.339 400.066C585.16 400.066 584.981 400.066 584.801 400.066C584.621 400.066 584.44 400.066 584.259 400.066C584.078 400.066 583.897 400.066 583.715 400.066C583.533 400.066 583.351 400.066 583.168 400.066C582.985 400.066 582.802 400.066 582.618 400.066C582.434 400.066 582.25 400.066 582.065 400.066C581.881 400.066 581.696 400.066 581.51 400.066C581.325 400.066 581.139 400.066 580.952 400.066C580.766 400.066 580.579 400.066 580.391 400.066C580.204 400.066 580.016 400.066 579.828 400.066C579.64 400.066 579.451 400.066 579.262 400.066C579.073 400.066 578.883 400.066 578.693 400.066C578.503 400.066 578.313 400.066 578.122 400.066C577.931 400.066 577.74 400.066 577.548 400.066C577.356 400.066 577.164 400.066 576.972 400.066C576.779 400.066 576.586 400.066 576.393 400.066C576.199 400.066 576.005 400.066 575.811 400.066C575.617 400.066 575.422 400.066 575.227 400.066C575.032 400.066 574.836 400.066 574.64 400.066C574.444 400.066 574.248 400.066 574.051 400.066C573.854 400.066 573.657 400.066 573.459 400.066C573.262 400.066 573.064 400.066 572.865 400.066C572.667 400.066 572.468 400.066 572.268 400.066C572.069 400.066 571.869 400.066 571.669 400.066C571.469 400.066 571.269 400.066 571.068 400.066C570.867 400.066 570.666 400.066 570.464 400.066C570.262 400.066 570.06 400.066 569.858 400.066C569.655 400.066 569.452 400.066 569.249 400.066C569.046 400.066 568.842 400.066 568.638 400.066C568.434 400.066 568.229 400.066 568.025 400.066C567.82 400.066 567.614 400.066 567.409 400.066C567.203 400.066 566.997 400.066 566.791 400.066C566.584 400.066 566.378 400.066 566.171 400.066C565.963 400.066 565.756 400.066 565.548 400.066C565.34 400.066 565.132 400.066 564.923 400.066C564.715 400.066 564.505 400.066 564.296 400.066C564.087 400.066 563.877 400.066 563.667 400.066C563.457 400.066 563.246 400.066 563.035 400.066C562.824 400.066 562.613 400.066 562.402 400.066C562.19 400.066 561.978 400.066 561.766 400.066C561.553 400.066 561.341 400.066 561.128 400.066C560.915 400.066 560.701 400.066 560.487 400.066C560.274 400.066 560.06 400.066 559.845 400.066C559.631 400.066 559.416 400.066 559.201 400.066C558.986 400.066 558.77 400.066 558.554 400.066C558.338 400.066 558.122 400.066 557.906 400.066C557.689 400.066 557.472 400.066 557.255 400.066C557.038 400.066 556.82 400.066 556.602 400.066C556.384 400.066 556.166 400.066 555.948 400.066C555.729 400.066 555.51 400.066 555.291 400.066C555.072 400.066 554.852 400.066 554.632 400.066C554.412 400.066 554.192 400.066 553.972 400.066C553.751 400.066 553.53 400.066 553.309 400.066C553.088 400.066 552.866 400.066 552.644 400.066C552.422 400.066 552.2 400.066 551.978 400.066C551.755 400.066 551.532 400.066 551.309 400.066C551.086 400.066 550.863 400.066 550.639 400.066C550.415 400.066 550.191 400.066 549.967 400.066C549.742 400.066 549.518 400.066 549.293 400.066C549.068 400.066 548.842 400.066 548.617 400.066C548.391 400.066 548.165 400.066 547.939 400.066C547.713 400.066 547.486 400.066 547.26 400.066C547.033 400.066 546.806 400.066 546.578 400.066C546.351 400.066 546.123 400.066 545.895 400.066C545.667 400.066 545.439 400.066 545.21 400.066C544.982 400.066 544.753 400.066 544.524 400.066C544.294 400.066 544.065 400.066 543.835 400.066C543.606 400.066 543.376 400.066 543.145 400.066C542.915 400.066 542.684 400.066 542.453 400.066C542.223 400.066 541.992 400.066 541.76 400.066C541.529 400.066 541.297 400.066 541.065 400.066C540.833 400.066 540.601 400.066 540.368 400.066C540.136 400.066 539.903 400.066 539.67 400.066C539.437 400.066 539.204 400.066 538.97 400.066C538.736 400.066 538.503 400.066 538.268 400.066C538.034 400.066 537.8 400.066 537.565 400.066C537.331 400.066 537.096 400.066 536.861 400.066C536.625 400.066 536.39 400.066 536.154 400.066C535.919 400.066 535.683 400.066 535.447 400.066C535.21 400.066 534.974 400.066 534.737 400.066C534.501 400.066 534.264 400.066 534.027 400.066C533.789 400.066 533.552 400.066 533.314 400.066C533.077 400.066 532.839 400.066 532.601 400.066C532.362 400.066 532.124 400.066 531.885 400.066C531.647 400.066 531.408 400.066 531.169 400.066C530.93 400.066 530.69 400.066 530.451 400.066C530.211 400.066 529.971 400.066 529.731 400.066C529.491 400.066 529.251 400.066 529.011 400.066C528.77 400.066 528.529 400.066 528.289 400.066C528.048 400.066 527.806 400.066 527.565 400.066C527.324 400.066 527.082 400.066 526.84 400.066C526.598 400.066 526.356 400.066 526.114 400.066C525.872 400.066 525.629 400.066 525.387 400.066C525.144 400.066 524.901 400.066 524.658 400.066C524.415 400.066 524.172 400.066 523.928 400.066C523.685 400.066 523.441 400.066 523.197 400.066C522.953 400.066 522.709 400.066 522.465 400.066C522.22 400.066 521.976 400.066 521.731 400.066C521.486 400.066 521.241 400.066 520.996 400.066C520.751 400.066 520.506 400.066 520.26 400.066C520.015 400.066 519.769 400.066 519.523 400.066C519.277 400.066 519.031 400.066 518.785 400.066C518.538 400.066 518.292 400.066 518.045 400.066C517.799 400.066 517.552 400.066 517.305 400.066C517.058 400.066 516.81 400.066 516.563 400.066C516.316 400.066 516.068 400.066 515.82 400.066C515.573 400.066 515.325 400.066 515.077 400.066C514.828 400.066 514.58 400.066 514.332 400.066C514.083 400.066 513.835 400.066 513.586 400.066C513.337 400.066 513.088 400.066 512.839 400.066C512.59 400.066 512.341 400.066 512.091 400.066C511.842 400.066 511.592 400.066 511.342 400.066C511.092 400.066 510.843 400.066 510.592 400.066C510.342 400.066 510.092 400.066 509.842 400.066C509.591 400.066 509.341 400.066 509.09 400.066C508.839 400.066 508.588 400.066 508.337 400.066C508.086 400.066 507.835 400.066 507.584 400.066C507.333 400.066 507.081 400.066 506.83 400.066C506.578 400.066 506.326 400.066 506.074 400.066C505.822 400.066 505.57 400.066 505.318 400.066C505.066 400.066 504.814 400.066 504.561 400.066C504.309 400.066 504.056 400.066 503.804 400.066C503.551 400.066 503.298 400.066 503.045 400.066C502.792 400.066 502.539 400.066 502.286 400.066C502.033 400.066 501.779 400.066 501.526 400.066C501.272 400.066 501.019 400.066 500.765 400.066C500.511 400.066 500.257 400.066 500.004 400.066C499.75 400.066 499.495 400.066 499.241 400.066C498.987 400.066 498.733 400.066 498.478 400.066C498.224 400.066 497.969 400.066 497.715 400.066C497.46 400.066 497.205 400.066 496.95 400.066C496.696 400.066 496.441 400.066 496.186 400.066C495.93 400.066 495.675 400.066 495.42 400.066C495.165 400.066 494.909 400.066 494.654 400.066C494.398 400.066 494.143 400.066 493.887 400.066C493.631 400.066 493.376 400.066 493.12 400.066C492.864 400.066 492.608 400.066 492.352 400.066C492.096 400.066 491.84 400.066 491.583 400.066C491.327 400.066 491.071 400.066 490.814 400.066C490.558 400.066 490.301 400.066 490.045 400.066C489.788 400.066 489.532 400.066 489.275 400.066C489.018 400.066 488.761 400.066 488.504 400.066C488.248 400.066 487.991 400.066 487.734 400.066C487.476 400.066 487.219 400.066 486.962 400.066C486.705 400.066 486.448 400.066 486.19 400.066C485.933 400.066 485.676 400.066 485.418 400.066C485.161 400.066 484.903 400.066 484.645 400.066C484.388 400.066 484.13 400.066 483.872 400.066C483.615 400.066 483.357 400.066 483.099 400.066C482.841 400.066 482.583 400.066 482.325 400.066C482.067 400.066 481.809 400.066 481.551 400.066C481.293 400.066 481.035 400.066 480.777 400.066C480.519 400.066 480.261 400.066 480.002 400.066C479.744 400.066 479.486 400.066 479.227 400.066C478.969 400.066 478.711 400.066 478.452 400.066C478.194 400.066 477.935 400.066 477.677 400.066C477.418 400.066 477.16 400.066 476.901 400.066C476.643 400.066 476.384 400.066 476.125 400.066C475.867 400.066 475.608 400.066 475.349 400.066C475.09 400.066 474.832 400.066 474.573 400.066C474.314 400.066 474.055 400.066 473.796 400.066C473.538 400.066 473.279 400.066 473.02 400.066C472.761 400.066 472.502 400.066 472.243 400.066C471.984 400.066 471.725 400.066 471.466 400.066C471.207 400.066 470.948 400.066 470.689 400.066C470.43 400.066 470.171 400.066 469.912 400.066C469.653 400.066 469.394 400.066 469.135 400.066C468.876 400.066 468.617 400.066 468.358 400.066C468.099 400.066 467.84 400.066 467.581 400.066C467.322 400.066 467.063 400.066 466.804 400.066C466.545 400.066 466.286 400.066 466.027 400.066C465.768 400.066 465.509 400.066 465.25 400.066C464.991 400.066 464.732 400.066 464.473 400.066C464.214 400.066 463.955 400.066 463.696 400.066C463.437 400.066 463.178 400.066 462.919 400.066C462.66 400.066 462.401 400.066 462.142 400.066C461.883 400.066 461.624 400.066 461.365 400.066C461.106 400.066 460.847 400.066 460.588 400.066C460.329 400.066 460.071 400.066 459.812 400.066C459.553 400.066 459.294 400.066 459.035 400.066C458.777 400.066 458.518 400.066 458.259 400.066C458 400.066 457.742 400.066 457.483 400.066C457.225 400.066 456.966 400.066 456.707 400.066C456.449 400.066 456.19 400.066 455.932 400.066C455.673 400.066 455.415 400.066 455.156 400.066C454.898 400.066 454.64 400.066 454.381 400.066C454.123 400.066 453.865 400.066 453.606 400.066C453.348 400.066 453.09 400.066 452.832 400.066C452.574 400.066 452.316 400.066 452.058 400.066C451.8 400.066 451.542 400.066 451.284 400.066C451.026 400.066 450.768 400.066 450.51 400.066C450.252 400.066 449.994 400.066 449.737 400.066C449.479 400.066 449.221 400.066 448.964 400.066C448.706 400.066 448.449 400.066 448.191 400.066C447.934 400.066 447.677 400.066 447.419 400.066C447.162 400.066 446.905 400.066 446.648 400.066C446.39 400.066 446.133 400.066 445.876 400.066C445.619 400.066 445.362 400.066 445.105 400.066C444.849 400.066 444.592 400.066 444.335 400.066C444.078 400.066 443.822 400.066 443.565 400.066C443.309 400.066 443.052 400.066 442.796 400.066C442.54 400.066 442.283 400.066 442.027 400.066C441.771 400.066 441.515 400.066 441.259 400.066C441.003 400.066 440.747 400.066 440.491 400.066C440.235 400.066 439.98 400.066 439.724 400.066C439.468 400.066 439.213 400.066 438.957 400.066C438.702 400.066 438.447 400.066 438.191 400.066C437.936 400.066 437.681 400.066 437.426 400.066C437.171 400.066 436.916 400.066 436.661 400.066C436.406 400.066 436.152 400.066 435.897 400.066C435.643 400.066 435.388 400.066 435.134 400.066C434.879 400.066 434.625 400.066 434.371 400.066C434.117 400.066 433.863 400.066 433.609 400.066C433.355 400.066 433.101 400.066 432.848 400.066C432.594 400.066 432.34 400.066 432.087 400.066C431.834 400.066 431.58 400.066 431.327 400.066C431.074 400.066 430.821 400.066 430.568 400.066C430.315 400.066 430.063 400.066 429.81 400.066C429.557 400.066 429.305 400.066 429.052 400.066C428.8 400.066 428.548 400.066 428.296 400.066C428.044 400.066 427.792 400.066 427.54 400.066C427.288 400.066 427.036 400.066 426.785 400.066C426.533 400.066 426.282 400.066 426.031 400.066C425.78 400.066 425.529 400.066 425.278 400.066C425.027 400.066 424.776 400.066 424.525 400.066C424.275 400.066 424.024 400.066 423.774 400.066C423.524 400.066 423.273 400.066 423.023 400.066C422.773 400.066 422.524 400.066 422.274 400.066C422.024 400.066 421.775 400.066 421.525 400.066C421.276 400.066 421.027 400.066 420.778 400.066C420.529 400.066 420.28 400.066 420.031 400.066C419.782 400.066 419.534 400.066 419.286 400.066C419.037 400.066 418.789 400.066 418.541 400.066C418.293 400.066 418.045 400.066 417.798 400.066C417.55 400.066 417.302 400.066 417.055 400.066C416.808 400.066 416.561 400.066 416.314 400.066C416.067 400.066 415.82 400.066 415.574 400.066C415.327 400.066 415.081 400.066 414.834 400.066C414.588 400.066 414.342 400.066 414.097 400.066C413.851 400.066 413.605 400.066 413.36 400.066C413.114 400.066 412.869 400.066 412.624 400.066C412.379 400.066 412.134 400.066 411.89 400.066C411.645 400.066 411.4 400.066 411.156 400.066C410.912 400.066 410.668 400.066 410.424 400.066C410.18 400.066 409.937 400.066 409.693 400.066C409.45 400.066 409.207 400.066 408.964 400.066C408.721 400.066 408.478 400.066 408.235 400.066C407.993 400.066 407.751 400.066 407.508 400.066C407.266 400.066 407.024 400.066 406.783 400.066C406.541 400.066 406.3 400.066 406.058 400.066C405.817 400.066 405.576 400.066 405.335 400.066C405.094 400.066 404.854 400.066 404.613 400.066C404.373 400.066 404.133 400.066 403.893 400.066C403.653 400.066 403.414 400.066 403.174 400.066C402.935 400.066 402.695 400.066 402.457 400.066C402.218 400.066 401.979 400.066 401.74 400.066C401.502 400.066 401.264 400.066 401.026 400.066C400.788 400.066 400.55 400.066 400.312 400.066C400.075 400.066 399.838 400.066 399.6 400.066C399.363 400.066 399.127 400.066 398.89 400.066C398.654 400.066 398.417 400.066 398.181 400.066C397.945 400.066 397.71 400.066 397.474 400.066C397.238 400.066 397.003 400.066 396.768 400.066C396.533 400.066 396.298 400.066 396.064 400.066C395.829 400.066 395.595 400.066 395.361 400.066C395.127 400.066 394.894 400.066 394.66 400.066C394.427 400.066 394.194 400.066 393.961 400.066C393.728 400.066 393.495 400.066 393.263 400.066C393.03 400.066 392.798 400.066 392.567 400.066C392.335 400.066 392.103 400.066 391.872 400.066C391.641 400.066 391.41 400.066 391.179 400.066C390.948 400.066 390.718 400.066 390.488 400.066C390.258 400.066 390.028 400.066 389.798 400.066C389.569 400.066 389.339 400.066 389.11 400.066C388.881 400.066 388.653 400.066 388.424 400.066C388.196 400.066 387.968 400.066 387.74 400.066C387.512 400.066 387.284 400.066 387.057 400.066C386.83 400.066 386.603 400.066 386.376 400.066C386.15 400.066 385.923 400.066 385.697 400.066C385.471 400.066 385.246 400.066 385.02 400.066C384.795 400.066 384.57 400.066 384.345 400.066C384.12 400.066 383.895 400.066 383.671 400.066C383.447 400.066 383.223 400.066 383 400.066C382.776 400.066 382.553 400.066 382.33 400.066C382.107 400.066 381.884 400.066 381.662 400.066C381.44 400.066 381.218 400.066 380.996 400.066C380.774 400.066 380.553 400.066 380.332 400.066C380.111 400.066 379.89 400.066 379.67 400.066C379.45 400.066 379.229 400.066 379.01 400.066C378.79 400.066 378.571 400.066 378.352 400.066C378.133 400.066 377.914 400.066 377.695 400.066C377.477 400.066 377.259 400.066 377.041 400.066C376.824 400.066 376.606 400.066 376.389 400.066C376.172 400.066 375.956 400.066 375.739 400.066C375.523 400.066 375.307 400.066 375.091 400.066C374.876 400.066 374.66 400.066 374.445 400.066C374.23 400.066 374.016 400.066 373.801 400.066C373.587 400.066 373.373 400.066 373.16 400.066C372.946 400.066 372.733 400.066 372.52 400.066C372.307 400.066 372.095 400.066 371.883 400.066C371.671 400.066 371.459 400.066 371.248 400.066C371.036 400.066 370.825 400.066 370.614 400.066C370.404 400.066 370.194 400.066 369.984 400.066C369.774 400.066 369.564 400.066 369.355 400.066C369.146 400.066 368.937 400.066 368.729 400.066C368.52 400.066 368.312 400.066 368.104 400.066C367.897 400.066 367.689 400.066 367.482 400.066C367.275 400.066 367.069 400.066 366.863 400.066C366.657 400.066 366.451 400.066 366.245 400.066C366.04 400.066 365.835 400.066 365.63 400.066C365.426 400.066 365.222 400.066 365.018 400.066C364.814 400.066 364.61 400.066 364.407 400.066C364.204 400.066 364.002 400.066 363.799 400.066C363.597 400.066 363.395 400.066 363.194 400.066C362.992 400.066 362.791 400.066 362.591 400.066C362.39 400.066 362.19 400.066 361.99 400.066C361.79 400.066 361.59 400.066 361.391 400.066C361.192 400.066 360.994 400.066 360.795 400.066C360.597 400.066 360.399 400.066 360.202 400.066C360.005 400.066 359.808 400.066 359.611 400.066C359.414 400.066 359.218 400.066 359.023 400.066C358.827 400.066 358.631 400.066 358.437 400.066C358.242 400.066 358.047 400.066 357.853 400.066C357.659 400.066 357.465 400.066 357.272 400.066C357.079 400.066 356.886 400.066 356.694 400.066C356.502 400.066 356.31 400.066 356.118 400.066C355.927 400.066 355.736 400.066 355.545 400.066C355.354 400.066 355.164 400.066 354.974 400.066C354.785 400.066 354.595 400.066 354.407 400.066C354.218 400.066 354.029 400.066 353.841 400.066C353.653 400.066 353.466 400.066 353.279 400.066C353.092 400.066 352.905 400.066 352.719 400.066C352.533 400.066 352.347 400.066 352.162 400.066C351.976 400.066 351.791 400.066 351.607 400.066C351.423 400.066 351.239 400.066 351.055 400.066C350.872 400.066 350.689 400.066 350.506 400.066C350.324 400.066 350.142 400.066 349.96 400.066C349.778 400.066 349.597 400.066 349.416 400.066C349.236 400.066 349.056 400.066 348.876 400.066C348.696 400.066 348.517 400.066 348.338 400.066C348.159 400.066 347.981 400.066 347.803 400.066C347.625 400.066 347.448 400.066 347.271 400.066C347.094 400.066 346.917 400.066 346.741 400.066C346.565 400.066 346.39 400.066 346.215 400.066C346.04 400.066 345.865 400.066 345.691 400.066C345.517 400.066 345.344 400.066 345.171 400.066C344.997 400.066 344.825 400.066 344.653 400.066C344.481 400.066 344.309 400.066 344.138 400.066C343.967 400.066 343.796 400.066 343.626 400.066C343.456 400.066 343.286 400.066 343.117 400.066C342.948 400.066 342.78 400.066 342.611 400.066C342.443 400.066 342.276 400.066 342.109 400.066C341.942 400.066 341.775 400.066 341.609 400.066C341.443 400.066 341.277 400.066 341.112 400.066C340.947 400.066 340.782 400.066 340.618 400.066C340.454 400.066 340.291 400.066 340.128 400.066C339.965 400.066 339.802 400.066 339.64 400.066C339.478 400.066 339.317 400.066 339.156 400.066C338.995 400.066 338.834 400.066 338.674 400.066C338.515 400.066 338.355 400.066 338.196 400.066C338.037 400.066 337.879 400.066 337.721 400.066C337.564 400.066 337.406 400.066 337.25 400.066C337.093 400.066 336.937 400.066 336.781 400.066C336.625 400.066 336.47 400.066 336.316 400.066C336.161 400.066 336.007 400.066 335.853 400.066C335.7 400.066 335.547 400.066 335.394 400.066C335.242 400.066 335.09 400.066 334.939 400.066C334.787 400.066 334.637 400.066 334.486 400.066C334.336 400.066 334.186 400.066 334.037 400.066C333.888 400.066 333.74 400.066 333.592 400.066C333.443 400.066 333.296 400.066 333.149 400.066C333.002 400.066 332.856 400.066 332.71 400.066C332.564 400.066 332.419 400.066 332.274 400.066C332.13 400.066 331.985 400.066 331.842 400.066C331.698 400.066 331.555 400.066 331.413 400.066C331.27 400.066 331.129 400.066 330.987 400.066C330.846 400.066 330.705 400.066 330.565 400.066C330.425 400.066 330.285 400.066 330.146 400.066C330.007 400.066 329.869 400.066 329.731 400.066C329.593 400.066 329.456 400.066 329.319 400.066C329.183 400.066 329.047 400.066 328.911 400.066C328.776 400.066 328.641 400.066 328.506 400.066C328.372 400.066 328.238 400.066 328.105 400.066C327.972 400.066 327.84 400.066 327.708 400.066C327.576 400.066 327.444 400.066 327.313 400.066C327.183 400.066 327.053 400.066 326.923 400.066C326.793 400.066 326.664 400.066 326.536 400.066C326.408 400.066 326.28 400.066 326.153 400.066C326.025 400.066 325.899 400.066 325.773 400.066C325.647 400.066 325.522 400.066 325.397 400.066C325.272 400.066 325.148 400.066 325.024 400.066C324.901 400.066 324.778 400.066 324.656 400.066C324.533 400.066 324.412 400.066 324.291 400.066C324.17 400.066 324.049 400.066 323.929 400.066C323.81 400.066 323.69 400.066 323.572 400.066C323.453 400.066 323.335 400.066 323.218 400.066C323.101 400.066 322.984 400.066 322.868 400.066C322.752 400.066 322.636 400.066 322.522 400.066C322.407 400.066 322.293 400.066 322.179 400.066C322.066 400.066 321.953 400.066 321.84 400.066C321.728 400.066 321.616 400.066 321.505 400.066C321.394 400.066 321.284 400.066 321.174 400.066C321.065 400.066 320.956 400.066 320.847 400.066C320.739 400.066 320.631 400.066 320.524 400.066C320.417 400.066 320.31 400.066 320.205 400.066C320.099 400.066 319.994 400.066 319.889 400.066C319.785 400.066 319.681 400.066 319.577 400.066C319.474 400.066 319.372 400.066 319.27 400.066C319.168 400.066 319.067 400.066 318.966 400.066C318.866 400.066 318.766 400.066 318.666 400.066C318.567 400.066 318.469 400.066 318.371 400.066C318.273 400.066 318.176 400.066 318.079 400.066C317.983 400.066 317.887 400.066 317.791 400.066C317.696 400.066 317.602 400.066 317.508 400.066C317.414 400.066 317.321 400.066 317.228 400.066C317.136 400.066 317.044 400.066 316.953 400.066C316.862 400.066 316.771 400.066 316.681 400.066C316.592 400.066 316.502 400.066 316.414 400.066V401.303Z" fill="#CD00AC"/>
<path d="M624.589 509.436C631.417 509.436 636.953 514.972 636.953 521.801V624.986C636.953 631.815 631.417 637.35 624.589 637.35H545.36V509.436H624.589Z" stroke="#8B00CD" stroke-width="14.8369"/>
<g filter="url(#filter5_d_1944_2508)">
<rect x="507.533" y="509.62" width="125.012" height="125.012" rx="9.89126" fill="#E7E8EA"/>
<rect x="510.006" y="512.093" width="120.067" height="120.067" rx="7.41844" stroke="white" stroke-width="4.94563"/>
</g>
<path d="M310.043 437.231C310.043 433.589 312.995 430.636 316.637 430.636C320.279 430.636 323.231 433.589 323.231 437.231C323.231 440.872 320.279 443.825 316.637 443.825C312.995 443.825 310.043 440.872 310.043 437.231ZM582.029 484.28C582.029 480.638 584.981 477.686 588.623 477.686C592.265 477.686 595.217 480.638 595.217 484.28C595.217 487.922 592.265 490.874 588.623 490.874C584.981 490.874 582.029 487.922 582.029 484.28ZM316.637 437.231V435.994C384.617 435.994 435.635 435.585 473.886 435.809C512.121 436.033 537.707 436.888 554.807 439.434C571.862 441.974 580.869 446.245 585.427 453.671C587.687 457.353 588.78 461.699 589.321 466.739C589.861 471.769 589.859 477.602 589.859 484.28H588.623H587.387C587.387 477.56 587.385 471.873 586.862 467.003C586.341 462.142 585.309 458.206 583.319 454.965C579.378 448.544 571.385 444.403 554.443 441.88C537.544 439.364 512.133 438.505 473.872 438.282C435.626 438.058 384.65 438.467 316.637 438.467V437.231Z" fill="#8B00CD"/>
<path d="M438.76 587.435C445.588 587.435 451.124 592.971 451.124 599.799V702.985C451.124 709.813 445.588 715.349 438.76 715.349H359.531V587.435H438.76Z" stroke="#0077CD" stroke-width="14.8369"/>
<g filter="url(#filter6_d_1944_2508)">
<rect x="321.706" y="587.619" width="125.012" height="125.012" rx="9.89126" fill="#E7E8EA"/>
<rect x="324.179" y="590.092" width="120.067" height="120.067" rx="7.41844" stroke="white" stroke-width="4.94563"/>
</g>
<path d="M310.043 464.823C310.043 461.182 312.995 458.229 316.637 458.229C320.279 458.229 323.231 461.182 323.231 464.823C323.231 468.465 320.279 471.418 316.637 471.418C312.995 471.418 310.043 468.465 310.043 464.823ZM407.18 563.124C407.18 559.482 410.133 556.529 413.775 556.529C417.417 556.529 420.369 559.482 420.369 563.124C420.369 566.766 417.417 569.718 413.775 569.718C410.133 569.718 407.18 566.766 407.18 563.124ZM316.637 464.823V463.587C340.825 463.587 359.162 462.733 372.837 463.2C386.503 463.668 396.016 465.45 402.445 471.05C408.895 476.669 411.964 485.882 413.487 500.395C415.013 514.94 415.011 535.161 415.011 563.124H413.775H412.538C412.538 535.098 412.537 515.037 411.027 500.653C409.514 486.237 406.512 477.873 400.82 472.915C395.106 467.937 386.407 466.139 372.752 465.672C359.107 465.205 341.018 466.06 316.637 466.06V464.823Z" fill="#0077CD"/>
<defs>
<filter id="filter0_i_1944_2508" x="58.166" y="291.139" width="240.733" height="250.016" filterUnits="userSpaceOnUse" color-interpolation-filters="sRGB">
<feFlood flood-opacity="0" result="BackgroundImageFix"/>
<feBlend mode="normal" in="SourceGraphic" in2="BackgroundImageFix" result="shape"/>
<feColorMatrix in="SourceAlpha" type="matrix" values="0 0 0 0 0 0 0 0 0 0 0 0 0 0 0 0 0 0 127 0" result="hardAlpha"/>
<feOffset dy="3.9565"/>
<feGaussianBlur stdDeviation="9.89126"/>
<feComposite in2="hardAlpha" operator="arithmetic" k2="-1" k3="1"/>
<feColorMatrix type="matrix" values="0 0 0 0 0 0 0 0 0 0 0 0 0 0 0 0 0 0 0.25 0"/>
<feBlend mode="normal" in2="shape" result="effect1_innerShadow_1944_2508"/>
</filter>
<filter id="filter1_d_1944_2508" x="56.9665" y="312.256" width="224.299" height="224.299" filterUnits="userSpaceOnUse" color-interpolation-filters="sRGB">
<feFlood flood-opacity="0" result="BackgroundImageFix"/>
<feColorMatrix in="SourceAlpha" type="matrix" values="0 0 0 0 0 0 0 0 0 0 0 0 0 0 0 0 0 0 127 0" result="hardAlpha"/>
<feOffset dx="-9.89126" dy="9.89126"/>
<feGaussianBlur stdDeviation="4.94563"/>
<feComposite in2="hardAlpha" operator="out"/>
<feColorMatrix type="matrix" values="0 0 0 0 0 0 0 0 0 0 0 0 0 0 0 0 0 0 0.25 0"/>
<feBlend mode="normal" in2="BackgroundImageFix" result="effect1_dropShadow_1944_2508"/>
<feBlend mode="normal" in="SourceGraphic" in2="effect1_dropShadow_1944_2508" result="shape"/>
</filter>
<filter id="filter2_d_1944_2508" x="296.977" y="73.5916" width="149.741" height="149.74" filterUnits="userSpaceOnUse" color-interpolation-filters="sRGB">
<feFlood flood-opacity="0" result="BackgroundImageFix"/>
<feColorMatrix in="SourceAlpha" type="matrix" values="0 0 0 0 0 0 0 0 0 0 0 0 0 0 0 0 0 0 127 0" result="hardAlpha"/>
<feOffset dx="-14.8369" dy="14.8369"/>
<feGaussianBlur stdDeviation="4.94563"/>
<feComposite in2="hardAlpha" operator="out"/>
<feColorMatrix type="matrix" values="0 0 0 0 0 0 0 0 0 0 0 0 0 0 0 0 0 0 0.25 0"/>
<feBlend mode="normal" in2="BackgroundImageFix" result="effect1_dropShadow_1944_2508"/>
<feBlend mode="normal" in="SourceGraphic" in2="effect1_dropShadow_1944_2508" result="shape"/>
</filter>
<filter id="filter3_d_1944_2508" x="482.805" y="177.841" width="149.741" height="149.74" filterUnits="userSpaceOnUse" color-interpolation-filters="sRGB">
<feFlood flood-opacity="0" result="BackgroundImageFix"/>
<feColorMatrix in="SourceAlpha" type="matrix" values="0 0 0 0 0 0 0 0 0 0 0 0 0 0 0 0 0 0 127 0" result="hardAlpha"/>
<feOffset dx="-14.8369" dy="14.8369"/>
<feGaussianBlur stdDeviation="4.94563"/>
<feComposite in2="hardAlpha" operator="out"/>
<feColorMatrix type="matrix" values="0 0 0 0 0 0 0 0 0 0 0 0 0 0 0 0 0 0 0.25 0"/>
<feBlend mode="normal" in2="BackgroundImageFix" result="effect1_dropShadow_1944_2508"/>
<feBlend mode="normal" in="SourceGraphic" in2="effect1_dropShadow_1944_2508" result="shape"/>
</filter>
<filter id="filter4_d_1944_2508" x="623.512" y="338.252" width="149.741" height="149.74" filterUnits="userSpaceOnUse" color-interpolation-filters="sRGB">
<feFlood flood-opacity="0" result="BackgroundImageFix"/>
<feColorMatrix in="SourceAlpha" type="matrix" values="0 0 0 0 0 0 0 0 0 0 0 0 0 0 0 0 0 0 127 0" result="hardAlpha"/>
<feOffset dx="-14.8369" dy="14.8369"/>
<feGaussianBlur stdDeviation="4.94563"/>
<feComposite in2="hardAlpha" operator="out"/>
<feColorMatrix type="matrix" values="0 0 0 0 0 0 0 0 0 0 0 0 0 0 0 0 0 0 0.25 0"/>
<feBlend mode="normal" in2="BackgroundImageFix" result="effect1_dropShadow_1944_2508"/>
<feBlend mode="normal" in="SourceGraphic" in2="effect1_dropShadow_1944_2508" result="shape"/>
</filter>
<filter id="filter5_d_1944_2508" x="482.805" y="509.62" width="149.741" height="149.74" filterUnits="userSpaceOnUse" color-interpolation-filters="sRGB">
<feFlood flood-opacity="0" result="BackgroundImageFix"/>
<feColorMatrix in="SourceAlpha" type="matrix" values="0 0 0 0 0 0 0 0 0 0 0 0 0 0 0 0 0 0 127 0" result="hardAlpha"/>
<feOffset dx="-14.8369" dy="14.8369"/>
<feGaussianBlur stdDeviation="4.94563"/>
<feComposite in2="hardAlpha" operator="out"/>
<feColorMatrix type="matrix" values="0 0 0 0 0 0 0 0 0 0 0 0 0 0 0 0 0 0 0.25 0"/>
<feBlend mode="normal" in2="BackgroundImageFix" result="effect1_dropShadow_1944_2508"/>
<feBlend mode="normal" in="SourceGraphic" in2="effect1_dropShadow_1944_2508" result="shape"/>
</filter>
<filter id="filter6_d_1944_2508" x="296.978" y="587.619" width="149.741" height="149.74" filterUnits="userSpaceOnUse" color-interpolation-filters="sRGB">
<feFlood flood-opacity="0" result="BackgroundImageFix"/>
<feColorMatrix in="SourceAlpha" type="matrix" values="0 0 0 0 0 0 0 0 0 0 0 0 0 0 0 0 0 0 127 0" result="hardAlpha"/>
<feOffset dx="-14.8369" dy="14.8369"/>
<feGaussianBlur stdDeviation="4.94563"/>
<feComposite in2="hardAlpha" operator="out"/>
<feColorMatrix type="matrix" values="0 0 0 0 0 0 0 0 0 0 0 0 0 0 0 0 0 0 0.25 0"/>
<feBlend mode="normal" in2="BackgroundImageFix" result="effect1_dropShadow_1944_2508"/>
<feBlend mode="normal" in="SourceGraphic" in2="effect1_dropShadow_1944_2508" result="shape"/>
</filter>
<linearGradient id="paint0_linear_1944_2508" x1="178.533" y1="291.139" x2="178.533" y2="537.198" gradientUnits="userSpaceOnUse">
<stop stop-color="#E7E8EA"/>
<stop offset="1" stop-color="#E7E8EA"/>
</linearGradient>
</defs>
</svg>
